<svg width="80" height="80" viewBox="0 0 80 80" fill="none" xmlns="http://www.w3.org/2000/svg">
<g filter="url(#filter0_d_1057_8045)">
<rect x="4" y="4" width="72" height="72" rx="36" fill="white"/>
<path d="M32.6065 49.3333L26.6665 54V29.3333C26.6665 28.9797 26.807 28.6406 27.057 28.3905C27.3071 28.1405 27.6462 28 27.9998 28H51.9998C52.3535 28 52.6926 28.1405 52.9426 28.3905C53.1927 28.6406 53.3332 28.9797 53.3332 29.3333V48C53.3332 48.3536 53.1927 48.6928 52.9426 48.9428C52.6926 49.1929 52.3535 49.3333 51.9998 49.3333H32.6065ZM31.6838 46.6667H50.6665V30.6667H29.3332V48.5133L31.6838 46.6667ZM34.6665 37.3333H45.3332V40H34.6665V37.3333Z" fill="#5A46C6"/>
</g>
<defs>
<filter id="filter0_d_1057_8045" x="0" y="0" width="80" height="80" filterUnits="userSpaceOnUse" color-interpolation-filters="sRGB">
<feFlood flood-opacity="0" result="BackgroundImageFix"/>
<feColorMatrix in="SourceAlpha" type="matrix" values="0 0 0 0 0 0 0 0 0 0 0 0 0 0 0 0 0 0 127 0" result="hardAlpha"/>
<feOffset/>
<feGaussianBlur stdDeviation="2"/>
<feComposite in2="hardAlpha" operator="out"/>
<feColorMatrix type="matrix" values="0 0 0 0 0 0 0 0 0 0 0 0 0 0 0 0 0 0 0.1 0"/>
<feBlend mode="normal" in2="BackgroundImageFix" result="effect1_dropShadow_1057_8045"/>
<feBlend mode="normal" in="SourceGraphic" in2="effect1_dropShadow_1057_8045" result="shape"/>
</filter>
</defs>
</svg>
