<svg width="128" height="129" viewBox="0 0 128 129" fill="none" xmlns="http://www.w3.org/2000/svg">
<circle cx="64" cy="64.6897" r="64" fill="#5555FF"/>
<path d="M65.5709 91.165C64.6042 80.6467 66.137 66.4709 72.3372 59.6028C78.867 61.0506 91.9265 56.5825 96.6754 47.521C100.982 39.3042 100.201 27.2456 102.612 23.9624C74.2166 23.9622 69.5056 53.3135 61.3744 75.2942C55.3623 59.0419 36.4945 48.0903 20.0992 54.7704C26.7647 59.378 30.921 70.7398 39.9524 71.7566C42.7939 72.0766 47.9542 71.7566 51.3531 65.3332C59.3957 71.8662 58.2235 79.7888 57.1779 91.165C56.7559 95.7564 55.1674 100.123 55.4008 103.766C55.7357 110.199 67.0132 110.199 67.348 103.766C67.5815 100.123 65.9929 95.7564 65.5709 91.165Z" fill="url(#paint0_linear)"/>
<defs>
<linearGradient id="paint0_linear" x1="61.3554" y1="23.9624" x2="61.3554" y2="108.59" gradientUnits="userSpaceOnUse">
<stop stop-color="#00FF19"/>
<stop offset="1" stop-color="#00B81E"/>
</linearGradient>
</defs>
</svg>
